<?xml version="1.0" standalone="no"?>
<!DOCTYPE svg PUBLIC "-//W3C//DTD SVG 20010904//EN"
 "http://www.w3.org/TR/2001/REC-SVG-20010904/DTD/svg10.dtd">
<svg version="1.0" xmlns="http://www.w3.org/2000/svg"
 width="1000.000000pt" height="1000.000000pt" viewBox="0 0 1000.000000 1000.000000"
 preserveAspectRatio="xMidYMid meet">
<metadata>
Created by potrace 1.14, written by Peter Selinger 2001-2017
</metadata>
<g transform="translate(0.000000,1000.000000) scale(0.100000,-0.100000)"
fill="#000000" stroke="none">
<path d="M4210 8455 c-186 -31 -184 -31 -281 -60 -105 -32 -98 -30 -134 -44
-256 -99 -473 -257 -595 -431 -14 -19 -28 -37 -31 -40 -24 -20 -149 -261 -149
-286 0 -8 -4 -14 -10 -14 -5 0 -9 -3 -8 -7 0 -5 -2 -15 -5 -23 -50 -120 -119
-409 -141 -595 -44 -358 -47 -443 -47 -1350 0 -436 -3 -512 -24 -725 -2 -19
-7 -75 -10 -125 -4 -49 -9 -93 -11 -96 -2 -3 -6 -37 -9 -75 -3 -38 -7 -87 -10
-109 -31 -276 -26 -711 10 -875 4 -14 8 -36 11 -50 10 -51 57 -196 70 -217 8
-13 15 -34 16 -48 1 -14 5 -25 9 -25 5 0 31 -46 34 -60 1 -9 59 -105 77 -129
10 -13 15 -28 11 -35 -3 -6 -3 -8 2 -4 4 4 26 -18 48 -49 22 -30 83 -99 135
-152 53 -53 96 -100 97 -106 0 -5 8 -9 18 -7 10 2 17 -3 17 -13 0 -8 3 -14 8
-13 12 4 62 -34 56 -43 -3 -5 1 -7 8 -4 7 3 25 -6 41 -20 15 -14 27 -23 27
-20 0 4 12 -3 26 -14 15 -12 33 -21 40 -21 7 0 17 -8 23 -17 5 -10 11 -16 13
-14 7 9 48 -11 42 -21 -4 -7 -2 -8 4 -4 6 4 22 1 34 -6 13 -6 30 -13 38 -14 8
-2 16 -7 18 -13 2 -5 10 -7 18 -4 8 3 14 0 14 -6 0 -6 7 -8 15 -5 8 4 15 2 15
-3 0 -5 12 -10 28 -11 15 -1 29 -7 30 -12 2 -6 7 -8 12 -5 5 3 21 0 37 -6 15
-6 48 -13 73 -15 25 -2 56 -7 70 -11 14 -3 36 -5 49 -4 16 2 21 -1 16 -10 -6
-8 -4 -10 6 -3 21 13 119 12 111 0 -3 -6 1 -5 9 1 9 7 40 13 70 12 30 0 78 5
108 11 30 6 63 9 73 7 11 -3 15 -1 12 5 -5 7 4 9 24 6 19 -3 29 -1 25 6 -4 5
1 7 10 3 9 -3 19 -1 23 4 3 6 17 9 30 6 14 -2 21 0 17 6 -4 6 2 8 15 5 12 -4
25 -2 28 4 3 5 15 8 25 5 12 -3 17 -1 12 6 -4 6 2 8 15 5 12 -4 20 -3 17 2 -6
10 54 22 68 13 6 -3 7 -1 3 5 -7 11 -3 14 27 16 6 1 15 5 18 9 3 4 16 9 27 10
12 1 22 5 22 9 0 4 6 8 13 8 8 0 28 7 45 16 18 8 36 12 42 9 6 -4 9 -1 8 6 -2
7 2 13 7 14 6 0 27 8 48 18 20 10 42 15 49 11 6 -4 8 -3 5 3 -8 13 41 36 55
27 7 -4 8 -2 4 4 -8 14 50 46 66 36 6 -4 8 -3 5 3 -3 5 16 20 43 34 27 13 50
27 50 32 0 4 9 7 21 7 11 0 17 5 14 10 -3 6 -1 10 5 10 7 0 25 9 41 21 16 11
29 18 29 14 0 -3 6 -1 13 4 61 51 78 62 87 56 6 -4 9 -3 8 2 -2 4 1 10 7 13 5
3 20 15 34 28 14 13 31 20 40 17 8 -3 12 -3 9 1 -8 7 -1 14 50 57 19 15 38 25
43 21 5 -3 8 0 7 8 -2 7 5 12 14 12 10 -1 16 2 13 6 -5 8 56 56 68 52 5 -1 6
2 3 7 -3 5 4 16 17 24 29 19 66 52 156 140 41 40 78 71 82 70 5 -2 8 1 6 6 -3
11 105 127 115 123 5 -1 7 2 5 6 -4 12 80 112 88 104 3 -4 5 -2 4 3 -5 17 21
56 33 49 7 -4 8 -3 4 4 -4 6 2 20 14 32 11 11 19 21 18 23 -7 6 30 46 37 39 5
-4 5 -2 2 4 -4 7 16 45 43 85 27 41 50 80 50 87 0 6 5 12 11 12 5 0 7 5 4 10
-3 6 -1 10 4 10 6 0 11 6 11 13 0 7 9 23 19 34 11 12 18 23 15 26 -3 2 9 28
26 56 16 29 30 54 30 56 0 2 11 29 25 59 14 30 25 60 25 66 0 6 5 8 10 5 6 -4
9 -3 8 2 -2 5 19 65 46 134 27 68 53 134 57 147 5 12 13 32 18 45 5 12 19 49
31 82 11 33 25 69 30 80 5 11 30 79 56 150 26 72 53 142 60 157 8 15 14 31 15
35 0 18 23 83 28 83 4 0 7 8 8 18 0 9 26 87 57 172 58 157 64 175 65 198 1 7
5 11 10 8 5 -3 8 0 8 7 -2 23 15 87 23 87 4 0 7 6 7 13 -2 19 25 127 32 127 3
0 6 10 7 23 0 12 10 67 22 122 29 140 35 193 37 325 1 127 -21 271 -55 366
-12 32 -24 68 -28 79 -6 23 -102 208 -111 215 -3 3 -19 25 -35 49 -16 25 -33
50 -37 55 -185 234 -335 380 -649 632 -137 110 -421 314 -438 314 -6 0 -12 3
-14 8 -3 8 -114 77 -233 144 -210 118 -490 234 -665 274 -230 52 -319 62 -540
62 -102 0 -219 -6 -260 -13z"/>
</g>
</svg>
