<svg xmlns="http://www.w3.org/2000/svg" xmlns:xlink="http://www.w3.org/1999/xlink" width="59" height="59.263" viewBox="0 0 59 59.263">
  <defs>
    <style>
      .cls-1 {
        fill: #fff;
      }

      .cls-2 {
        filter: url(#shopping_cart_FILL0_wght400_GRAD0_opsz48);
      }
    </style>
    <filter id="shopping_cart_FILL0_wght400_GRAD0_opsz48" x="0" y="0" width="59" height="59.263" filterUnits="userSpaceOnUse">
      <feOffset dy="3" input="SourceAlpha"/>
      <feGaussianBlur stdDeviation="3" result="blur"/>
      <feFlood flood-opacity="0.161"/>
      <feComposite operator="in" in2="blur"/>
      <feComposite in="SourceGraphic"/>
    </filter>
  </defs>
  <g id="shopping_cart_FILL0_wght400_GRAD0_opsz48-2" data-name="shopping_cart_FILL0_wght400_GRAD0_opsz48" transform="translate(9 6)">
    <g class="cls-2" transform="matrix(1, 0, 0, 1, -9, -6)">
      <path id="shopping_cart_FILL0_wght400_GRAD0_opsz48-3" data-name="shopping_cart_FILL0_wght400_GRAD0_opsz48" class="cls-1" d="M63.331,217.263a3.623,3.623,0,0,1-2.656-1.1,3.587,3.587,0,0,1-1.1-2.634,3.533,3.533,0,0,1,1.109-2.623,3.679,3.679,0,0,1,2.667-1.085,3.623,3.623,0,0,1,2.656,1.1,3.587,3.587,0,0,1,1.1,2.634A3.533,3.533,0,0,1,66,216.178,3.679,3.679,0,0,1,63.331,217.263Zm20.918,0a3.623,3.623,0,0,1-2.656-1.1,3.587,3.587,0,0,1-1.1-2.634,3.533,3.533,0,0,1,1.109-2.623,3.679,3.679,0,0,1,2.667-1.085,3.623,3.623,0,0,1,2.656,1.1,3.587,3.587,0,0,1,1.1,2.634,3.533,3.533,0,0,1-1.109,2.623,3.679,3.679,0,0,1-2.667,1.085ZM60.622,183.178l5.753,11.775H81.436l6.537-11.775Zm-1.569-3.1H89.86a2,2,0,0,1,1.827,1.084,2.032,2.032,0,0,1,0,2.169l-7.06,12.549a4.635,4.635,0,0,1-1.494,1.575,3.628,3.628,0,0,1-2.01.594H65.277l-2.929,5.371H88.025v3.1H62.819a3.526,3.526,0,0,1-3.164-1.446,2.94,2.94,0,0,1,.026-3.253l3.347-6.094L55.079,179.1H51V176h6.119Zm7.321,14.873h0Z" transform="translate(-42 -170)"/>
    </g>
  </g>
</svg>
