<svg xmlns="http://www.w3.org/2000/svg" xmlns:xlink="http://www.w3.org/1999/xlink" width="52" height="54" viewBox="0 0 52 54">
  <defs>
    <style>
      .cls-1 {
        fill: #fff;
      }

      .cls-2 {
        filter: url(#Vector);
      }
    </style>
    <filter id="Vector" x="0" y="0" width="52" height="54" filterUnits="userSpaceOnUse">
      <feOffset dy="3" input="SourceAlpha"/>
      <feGaussianBlur stdDeviation="3" result="blur"/>
      <feFlood flood-opacity="0.161"/>
      <feComposite operator="in" in2="blur"/>
      <feComposite in="SourceGraphic"/>
    </filter>
  </defs>
  <g class="cls-2" transform="matrix(1, 0, 0, 1, 0, 0)">
    <path id="Vector-2" data-name="Vector" class="cls-1" d="M3.778,36a3.735,3.735,0,0,1-2.669-1.057A3.378,3.378,0,0,1,0,32.4V7.2A3.388,3.388,0,0,1,1.111,4.657,3.722,3.722,0,0,1,3.778,3.6H5.667V1.755A1.628,1.628,0,0,1,6.211.5,1.924,1.924,0,0,1,7.556,0,1.88,1.88,0,0,1,8.9.517,1.692,1.692,0,0,1,9.444,1.8V3.6H24.556V1.755A1.628,1.628,0,0,1,25.1.5,1.924,1.924,0,0,1,26.444,0a1.88,1.88,0,0,1,1.347.517A1.692,1.692,0,0,1,28.333,1.8V3.6h1.889a3.731,3.731,0,0,1,2.669,1.058A3.38,3.38,0,0,1,34,7.2V32.4a3.389,3.389,0,0,1-1.111,2.543A3.722,3.722,0,0,1,30.222,36Zm0-3.6H30.222v-18H3.778Z" transform="translate(9 6)"/>
  </g>
</svg>
